# xmcd CD database file
#
# Track frame offsets:
#	180
#	20461
#	35454
#	49476
#	61932
#	73335
#	84936
#	97098
#	113236
#	127027
#	138568
#	151033
#	163793
#	172543
#	181934
#	190263
#	201504
#	215293
#	229554
#	239885
#	250091
#	263068
#	272673
#	282130
#
# Disc length: 3910 seconds
#
# Revision: 0
# Processed by: cddbd v1.5.1PL0 Copyright (c) Steve Scherf et al.
# Submitted via: CDex 1.51
#
DISCID=5b0f4418
DTITLE=Tonico and Tinoco - TONICO and TINOCO vol4
DYEAR=1950
DGENRE=Country
TTITLE0=Luar do Sertao
TTITLE1=Painera Velha
TTITLE2=Saudade de Matao
TTITLE3=Mourao da Porteira
TTITLE4=Rancho Vazio
TTITLE5=Cavalo Preto
TTITLE6=Pingo d Agua
TTITLE7=Maringa
TTITLE8=Moda da Mula Preta
TTITLE9=Tudo tem no Sertao
TTITLE10=Velhas Cartas
TTITLE11=Rio Pequeno
TTITLE12=Festa na Roca
TTITLE13=Canoeiro do Sul
TTITLE14=Mazurcando
TTITLE15=Cabocla Bonita
TTITLE16=Velho Candieiro
TTITLE17=A Paz
TTITLE18=Dom de Jesus
TTITLE19=Velho Carreteiro
TTITLE20=Historia de Minha Vida
TTITLE21=Arroz a Carreteira
TTITLE22=Rainha do Pantanal
TTITLE23=Licao da Vida
EXTD=YEAR: 1950
EXTT0=
EXTT1=
EXTT2=
EXTT3=
EXTT4=
EXTT5=
EXTT6=
EXTT7=
EXTT8=
EXTT9=
EXTT10=
EXTT11=
EXTT12=
EXTT13=
EXTT14=
EXTT15=
EXTT16=
EXTT17=
EXTT18=
EXTT19=
EXTT20=
EXTT21=
EXTT22=
EXTT23=
PLAYORDER=
